<svg width="50" height="50" viewBox="0 0 50 50" fill="none" xmlns="http://www.w3.org/2000/svg">
<rect width="50" height="50" fill="#121212"/>
<path d="M6.69955 35H6.32812L8.81384 15H9.7567L15.7567 33.4857L21.7281 15H22.671L25.1567 35H22.7853L20.8138 19L15.6424 35H13.8424L8.61384 19.2L6.69955 35Z" fill="white"/>
<path d="M43.1277 15C43.4896 15.3619 43.6705 15.8286 43.6705 16.4C43.6705 16.8762 43.5658 17.3619 43.3562 17.8571L38.242 28.2286V35H35.8705V28.8571L30.1562 15H32.5848L38.042 27.8857L43.0134 17.8571C43.2229 17.381 43.3277 16.8857 43.3277 16.3714C43.3277 15.8571 43.1848 15.4571 42.8991 15.1714L43.1277 15Z" fill="white"/>
</svg>
